<svg xmlns="http://www.w3.org/2000/svg" width="32" height="32" viewBox="0 0 32 32"><style>.ribbon{fill:#fff}.background{fill:#000}.cube{fill:red}@media (prefers-color-scheme:light){.ribbon{fill:#000}.background{fill:#fff}}</style><polygon points="25 13 24.566 12.257 27.872 10.368 23.574 3 8.42 3 3.848 11 0 11 0 19 7 19 7.434 19.743 5.004 21.132 4.128 21.632 8.426 29 23.58 29 28.152 21 32 21 32 13 25 13" class="background"/><g class="ribbon"><polygon points="1 17.125 1 12 3.875 12 1 17.125"/><polygon points="19.792 10.5 21.25 13 25.625 10.5 19.792 10.5"/><polygon points="26.5 10 23 4 9 4 1 18 8 18 12.5 10 26.5 10"/><polygon points="28.125 20 31 20 31 14.875 28.125 20"/><polygon points="12.208 21.5 10.75 19 6.375 21.5 12.208 21.5"/><polygon points="5.5 22 9 28 23 28 31 14 24 14 19.5 22 5.5 22"/></g><polygon points="17.75 13 14.25 13 12.5 16 14.25 19 17.75 19 19.5 16 17.75 13" class="cube"/></svg>